<svg width="109" height="25" viewBox="0 0 109 25" fill="none" xmlns="http://www.w3.org/2000/svg">
<rect x="0.5" y="0.5" width="97" height="24" rx="2.5" stroke="black"/>
<path d="M5.028 17L9.508 7.2H10.53L15.01 17H13.918L9.802 7.802H10.222L6.106 17H5.028ZM6.792 14.382L7.1 13.542H12.798L13.106 14.382H6.792ZM18.3112 17V7.2H19.1652L25.9272 15.712H25.4792V7.2H26.5012V17H25.6472L18.8992 8.488H19.3472V17H18.3112ZM33.2838 17V8.096H29.8398V7.2H37.7638V8.096H34.3198V17H33.2838ZM42.0229 11.582H47.2029V12.464H42.0229V11.582ZM42.1349 16.104H48.0289V17H41.0989V7.2H47.8189V8.096H42.1349V16.104ZM52.1441 17V7.2H55.8121C56.6428 7.2 57.3568 7.33533 57.9541 7.606C58.5515 7.86733 59.0088 8.25 59.3261 8.754C59.6528 9.24867 59.8161 9.85067 59.8161 10.56C59.8161 11.2507 59.6528 11.848 59.3261 12.352C59.0088 12.8467 58.5515 13.2293 57.9541 13.5C57.3568 13.7613 56.6428 13.892 55.8121 13.892H52.7181L53.1801 13.416V17H52.1441ZM58.8361 17L56.3161 13.444H57.4361L59.9701 17H58.8361ZM53.1801 13.5L52.7181 13.01H55.7841C56.7641 13.01 57.5061 12.7953 58.0101 12.366C58.5235 11.9367 58.7801 11.3347 58.7801 10.56C58.7801 9.776 58.5235 9.16933 58.0101 8.74C57.5061 8.31067 56.7641 8.096 55.7841 8.096H52.7181L53.1801 7.606V13.5ZM63.9413 17V7.2H64.9773V17H63.9413ZM74.1299 17.084C73.3926 17.084 72.7066 16.9627 72.0719 16.72C71.4466 16.468 70.9006 16.118 70.4339 15.67C69.9766 15.2127 69.6173 14.6853 69.3559 14.088C69.1039 13.4813 68.9779 12.8187 68.9779 12.1C68.9779 11.3813 69.1039 10.7233 69.3559 10.126C69.6173 9.51933 69.9766 8.992 70.4339 8.544C70.9006 8.08667 71.4466 7.73667 72.0719 7.494C72.6973 7.242 73.3833 7.116 74.1299 7.116C74.8673 7.116 75.5486 7.242 76.1739 7.494C76.7993 7.73667 77.3406 8.082 77.7979 8.53C78.2646 8.978 78.6239 9.50533 78.8759 10.112C79.1373 10.7187 79.2679 11.3813 79.2679 12.1C79.2679 12.8187 79.1373 13.4813 78.8759 14.088C78.6239 14.6947 78.2646 15.222 77.7979 15.67C77.3406 16.118 76.7993 16.468 76.1739 16.72C75.5486 16.9627 74.8673 17.084 74.1299 17.084ZM74.1299 16.16C74.7179 16.16 75.2593 16.062 75.7539 15.866C76.2579 15.6607 76.6919 15.376 77.0559 15.012C77.4293 14.6387 77.7186 14.2093 77.9239 13.724C78.1293 13.2293 78.2319 12.688 78.2319 12.1C78.2319 11.512 78.1293 10.9753 77.9239 10.49C77.7186 9.99533 77.4293 9.566 77.0559 9.202C76.6919 8.82867 76.2579 8.544 75.7539 8.348C75.2593 8.14267 74.7179 8.04 74.1299 8.04C73.5419 8.04 72.9959 8.14267 72.4919 8.348C71.9879 8.544 71.5493 8.82867 71.1759 9.202C70.8119 9.566 70.5226 9.99533 70.3079 10.49C70.1026 10.9753 69.9999 11.512 69.9999 12.1C69.9999 12.6787 70.1026 13.2153 70.3079 13.71C70.5226 14.2047 70.8119 14.6387 71.1759 15.012C71.5493 15.376 71.9879 15.6607 72.4919 15.866C72.9959 16.062 73.5419 16.16 74.1299 16.16ZM83.2701 17V7.2H86.9381C87.7687 7.2 88.4827 7.33533 89.0801 7.606C89.6774 7.86733 90.1347 8.25 90.4521 8.754C90.7787 9.24867 90.9421 9.85067 90.9421 10.56C90.9421 11.2507 90.7787 11.848 90.4521 12.352C90.1347 12.8467 89.6774 13.2293 89.0801 13.5C88.4827 13.7613 87.7687 13.892 86.9381 13.892H83.8441L84.3061 13.416V17H83.2701ZM89.9621 17L87.4421 13.444H88.5621L91.0961 17H89.9621ZM84.3061 13.5L83.8441 13.01H86.9101C87.8901 13.01 88.6321 12.7953 89.1361 12.366C89.6494 11.9367 89.9061 11.3347 89.9061 10.56C89.9061 9.776 89.6494 9.16933 89.1361 8.74C88.6321 8.31067 87.8901 8.096 86.9101 8.096H83.8441L84.3061 7.606V13.5Z" fill="black"/>
</svg>
