<svg width="414" height="84" viewBox="0 0 414 84" fill="none" xmlns="http://www.w3.org/2000/svg">
<g filter="url(#filter0_d_646_3)">
<rect x="4" width="406" height="76" rx="38" fill="#00C5FF"/>
</g>
<path d="M117.156 49.288C115.212 49.288 113.424 48.976 111.792 48.352C110.16 47.704 108.744 46.804 107.544 45.652C106.344 44.476 105.408 43.108 104.736 41.548C104.064 39.988 103.728 38.272 103.728 36.4C103.728 34.528 104.064 32.812 104.736 31.252C105.408 29.692 106.344 28.336 107.544 27.184C108.768 26.008 110.196 25.108 111.828 24.484C113.46 23.836 115.26 23.512 117.228 23.512C119.22 23.512 121.044 23.836 122.7 24.484C124.356 25.132 125.76 26.104 126.912 27.4L124.68 29.632C123.648 28.624 122.52 27.892 121.296 27.436C120.096 26.956 118.788 26.716 117.372 26.716C115.932 26.716 114.588 26.956 113.34 27.436C112.116 27.916 111.048 28.588 110.136 29.452C109.248 30.316 108.552 31.348 108.048 32.548C107.568 33.724 107.328 35.008 107.328 36.4C107.328 37.768 107.568 39.052 108.048 40.252C108.552 41.428 109.248 42.46 110.136 43.348C111.048 44.212 112.116 44.884 113.34 45.364C114.564 45.844 115.896 46.084 117.336 46.084C118.68 46.084 119.964 45.88 121.188 45.472C122.436 45.04 123.588 44.332 124.644 43.348L126.696 46.084C125.448 47.14 123.984 47.944 122.304 48.496C120.648 49.024 118.932 49.288 117.156 49.288ZM123.24 45.616V36.256H126.696V46.084L123.24 45.616ZM141.257 49.216C139.337 49.216 137.633 48.796 136.145 47.956C134.657 47.116 133.481 45.964 132.617 44.5C131.753 43.012 131.321 41.332 131.321 39.46C131.321 37.564 131.753 35.884 132.617 34.42C133.481 32.956 134.657 31.816 136.145 31C137.633 30.16 139.337 29.74 141.257 29.74C143.153 29.74 144.845 30.16 146.333 31C147.845 31.816 149.021 32.956 149.861 34.42C150.725 35.86 151.157 37.54 151.157 39.46C151.157 41.356 150.725 43.036 149.861 44.5C149.021 45.964 147.845 47.116 146.333 47.956C144.845 48.796 143.153 49.216 141.257 49.216ZM141.257 46.192C142.481 46.192 143.573 45.916 144.533 45.364C145.517 44.812 146.285 44.032 146.837 43.024C147.389 41.992 147.665 40.804 147.665 39.46C147.665 38.092 147.389 36.916 146.837 35.932C146.285 34.924 145.517 34.144 144.533 33.592C143.573 33.04 142.481 32.764 141.257 32.764C140.033 32.764 138.941 33.04 137.981 33.592C137.021 34.144 136.253 34.924 135.677 35.932C135.101 36.916 134.813 38.092 134.813 39.46C134.813 40.804 135.101 41.992 135.677 43.024C136.253 44.032 137.021 44.812 137.981 45.364C138.941 45.916 140.033 46.192 141.257 46.192ZM160.413 49L152.061 29.92H155.661L163.077 47.2H161.349L168.909 29.92H172.293L163.941 49H160.413ZM183.487 49.216C181.447 49.216 179.647 48.796 178.087 47.956C176.551 47.116 175.351 45.964 174.487 44.5C173.647 43.036 173.227 41.356 173.227 39.46C173.227 37.564 173.635 35.884 174.451 34.42C175.291 32.956 176.431 31.816 177.871 31C179.335 30.16 180.979 29.74 182.803 29.74C184.651 29.74 186.283 30.148 187.699 30.964C189.115 31.78 190.219 32.932 191.011 34.42C191.827 35.884 192.235 37.6 192.235 39.568C192.235 39.712 192.223 39.88 192.199 40.072C192.199 40.264 192.187 40.444 192.163 40.612H175.927V38.128H190.363L188.959 38.992C188.983 37.768 188.731 36.676 188.203 35.716C187.675 34.756 186.943 34.012 186.007 33.484C185.095 32.932 184.027 32.656 182.803 32.656C181.603 32.656 180.535 32.932 179.599 33.484C178.663 34.012 177.931 34.768 177.403 35.752C176.875 36.712 176.611 37.816 176.611 39.064V39.64C176.611 40.912 176.899 42.052 177.475 43.06C178.075 44.044 178.903 44.812 179.959 45.364C181.015 45.916 182.227 46.192 183.595 46.192C184.723 46.192 185.743 46 186.655 45.616C187.591 45.232 188.407 44.656 189.103 43.888L191.011 46.12C190.147 47.128 189.067 47.896 187.771 48.424C186.499 48.952 185.071 49.216 183.487 49.216ZM197.034 49V29.92H200.346V35.104L200.022 33.808C200.55 32.488 201.438 31.48 202.686 30.784C203.934 30.088 205.47 29.74 207.294 29.74V33.088C207.15 33.064 207.006 33.052 206.862 33.052C206.742 33.052 206.622 33.052 206.502 33.052C204.654 33.052 203.19 33.604 202.11 34.708C201.03 35.812 200.49 37.408 200.49 39.496V49H197.034ZM221.741 29.74C223.301 29.74 224.669 30.04 225.845 30.64C227.045 31.24 227.981 32.152 228.653 33.376C229.325 34.6 229.661 36.148 229.661 38.02V49H226.205V38.416C226.205 36.568 225.749 35.176 224.837 34.24C223.949 33.304 222.689 32.836 221.057 32.836C219.833 32.836 218.765 33.076 217.853 33.556C216.941 34.036 216.233 34.744 215.729 35.68C215.249 36.616 215.009 37.78 215.009 39.172V49H211.553V29.92H214.865V35.068L214.325 33.7C214.949 32.452 215.909 31.48 217.205 30.784C218.501 30.088 220.013 29.74 221.741 29.74ZM247.901 49V44.968L247.721 44.212V37.336C247.721 35.872 247.289 34.744 246.425 33.952C245.585 33.136 244.313 32.728 242.609 32.728C241.481 32.728 240.377 32.92 239.297 33.304C238.217 33.664 237.305 34.156 236.561 34.78L235.121 32.188C236.105 31.396 237.281 30.796 238.649 30.388C240.041 29.956 241.493 29.74 243.005 29.74C245.621 29.74 247.637 30.376 249.053 31.648C250.469 32.92 251.177 34.864 251.177 37.48V49H247.901ZM241.637 49.216C240.221 49.216 238.973 48.976 237.893 48.496C236.837 48.016 236.021 47.356 235.445 46.516C234.869 45.652 234.581 44.68 234.581 43.6C234.581 42.568 234.821 41.632 235.301 40.792C235.805 39.952 236.609 39.28 237.713 38.776C238.841 38.272 240.353 38.02 242.249 38.02H248.297V40.504H242.393C240.665 40.504 239.501 40.792 238.901 41.368C238.301 41.944 238.001 42.64 238.001 43.456C238.001 44.392 238.373 45.148 239.117 45.724C239.861 46.276 240.893 46.552 242.213 46.552C243.509 46.552 244.637 46.264 245.597 45.688C246.581 45.112 247.289 44.272 247.721 43.168L248.405 45.544C247.949 46.672 247.145 47.572 245.993 48.244C244.841 48.892 243.389 49.216 241.637 49.216ZM267.761 29.74C269.321 29.74 270.689 30.04 271.865 30.64C273.065 31.24 274.001 32.152 274.673 33.376C275.345 34.6 275.681 36.148 275.681 38.02V49H272.225V38.416C272.225 36.568 271.769 35.176 270.857 34.24C269.969 33.304 268.709 32.836 267.077 32.836C265.853 32.836 264.785 33.076 263.873 33.556C262.961 34.036 262.253 34.744 261.749 35.68C261.269 36.616 261.029 37.78 261.029 39.172V49H257.573V29.92H260.885V35.068L260.345 33.7C260.969 32.452 261.929 31.48 263.225 30.784C264.521 30.088 266.033 29.74 267.761 29.74ZM290.393 49.216C288.449 49.216 286.709 48.796 285.173 47.956C283.661 47.116 282.473 45.964 281.609 44.5C280.745 43.036 280.313 41.356 280.313 39.46C280.313 37.564 280.745 35.884 281.609 34.42C282.473 32.956 283.661 31.816 285.173 31C286.709 30.16 288.449 29.74 290.393 29.74C292.121 29.74 293.657 30.088 295.001 30.784C296.369 31.456 297.425 32.464 298.169 33.808L295.541 35.5C294.917 34.564 294.149 33.88 293.237 33.448C292.349 32.992 291.389 32.764 290.357 32.764C289.109 32.764 287.993 33.04 287.009 33.592C286.025 34.144 285.245 34.924 284.669 35.932C284.093 36.916 283.805 38.092 283.805 39.46C283.805 40.828 284.093 42.016 284.669 43.024C285.245 44.032 286.025 44.812 287.009 45.364C287.993 45.916 289.109 46.192 290.357 46.192C291.389 46.192 292.349 45.976 293.237 45.544C294.149 45.088 294.917 44.392 295.541 43.456L298.169 45.112C297.425 46.432 296.369 47.452 295.001 48.172C293.657 48.868 292.121 49.216 290.393 49.216ZM288.701 57.064C288.077 57.064 287.501 56.992 286.973 56.848C286.445 56.728 285.953 56.536 285.497 56.272L286.253 54.508C286.637 54.724 287.021 54.88 287.405 54.976C287.813 55.072 288.245 55.12 288.701 55.12C289.397 55.12 289.901 54.988 290.213 54.724C290.549 54.484 290.717 54.136 290.717 53.68C290.717 53.248 290.549 52.9 290.213 52.636C289.901 52.396 289.385 52.276 288.665 52.276H287.693L288.593 48.748H290.573L290.033 50.8C291.065 50.896 291.845 51.22 292.373 51.772C292.901 52.324 293.165 52.996 293.165 53.788C293.165 54.796 292.757 55.588 291.941 56.164C291.125 56.764 290.045 57.064 288.701 57.064ZM314.487 49V44.968L314.307 44.212V37.336C314.307 35.872 313.875 34.744 313.011 33.952C312.171 33.136 310.899 32.728 309.195 32.728C308.067 32.728 306.963 32.92 305.883 33.304C304.803 33.664 303.891 34.156 303.147 34.78L301.707 32.188C302.691 31.396 303.867 30.796 305.235 30.388C306.627 29.956 308.079 29.74 309.591 29.74C312.207 29.74 314.223 30.376 315.639 31.648C317.055 32.92 317.763 34.864 317.763 37.48V49H314.487ZM308.223 49.216C306.807 49.216 305.559 48.976 304.479 48.496C303.423 48.016 302.607 47.356 302.031 46.516C301.455 45.652 301.167 44.68 301.167 43.6C301.167 42.568 301.407 41.632 301.887 40.792C302.391 39.952 303.195 39.28 304.299 38.776C305.427 38.272 306.939 38.02 308.835 38.02H314.883V40.504H308.979C307.251 40.504 306.087 40.792 305.487 41.368C304.887 41.944 304.587 42.64 304.587 43.456C304.587 44.392 304.959 45.148 305.703 45.724C306.447 46.276 307.479 46.552 308.799 46.552C310.095 46.552 311.223 46.264 312.183 45.688C313.167 45.112 313.875 44.272 314.307 43.168L314.991 45.544C314.535 46.672 313.731 47.572 312.579 48.244C311.427 48.892 309.975 49.216 308.223 49.216Z" fill="white"/>
<defs>
<filter id="filter0_d_646_3" x="0" y="0" width="414" height="84" filterUnits="userSpaceOnUse" color-interpolation-filters="sRGB">
<feFlood flood-opacity="0" result="BackgroundImageFix"/>
<feColorMatrix in="SourceAlpha" type="matrix" values="0 0 0 0 0 0 0 0 0 0 0 0 0 0 0 0 0 0 127 0" result="hardAlpha"/>
<feOffset dy="4"/>
<feGaussianBlur stdDeviation="2"/>
<feComposite in2="hardAlpha" operator="out"/>
<feColorMatrix type="matrix" values="0 0 0 0 0 0 0 0 0 0 0 0 0 0 0 0 0 0 0.25 0"/>
<feBlend mode="normal" in2="BackgroundImageFix" result="effect1_dropShadow_646_3"/>
<feBlend mode="normal" in="SourceGraphic" in2="effect1_dropShadow_646_3" result="shape"/>
</filter>
</defs>
</svg>
