<svg width="414" height="84" viewBox="0 0 414 84" fill="none" xmlns="http://www.w3.org/2000/svg">
<g filter="url(#filter0_d_646_2)">
<rect x="4" width="406" height="76" rx="38" fill="#00C5FF"/>
</g>
<path d="M107.048 51.288C105.128 51.288 103.352 50.976 101.72 50.352C100.112 49.704 98.708 48.804 97.508 47.652C96.332 46.476 95.408 45.108 94.736 43.548C94.064 41.988 93.728 40.272 93.728 38.4C93.728 36.528 94.064 34.812 94.736 33.252C95.408 31.692 96.344 30.336 97.544 29.184C98.744 28.008 100.148 27.108 101.756 26.484C103.388 25.836 105.164 25.512 107.084 25.512C109.028 25.512 110.816 25.848 112.448 26.52C114.104 27.168 115.508 28.14 116.66 29.436L114.32 31.704C113.36 30.696 112.28 29.952 111.08 29.472C109.88 28.968 108.596 28.716 107.228 28.716C105.812 28.716 104.492 28.956 103.268 29.436C102.068 29.916 101.024 30.588 100.136 31.452C99.248 32.316 98.552 33.348 98.048 34.548C97.568 35.724 97.328 37.008 97.328 38.4C97.328 39.792 97.568 41.088 98.048 42.288C98.552 43.464 99.248 44.484 100.136 45.348C101.024 46.212 102.068 46.884 103.268 47.364C104.492 47.844 105.812 48.084 107.228 48.084C108.596 48.084 109.88 47.844 111.08 47.364C112.28 46.86 113.36 46.092 114.32 45.06L116.66 47.328C115.508 48.624 114.104 49.608 112.448 50.28C110.816 50.952 109.016 51.288 107.048 51.288ZM128.655 51.216C126.735 51.216 125.031 50.796 123.543 49.956C122.055 49.116 120.879 47.964 120.015 46.5C119.151 45.012 118.719 43.332 118.719 41.46C118.719 39.564 119.151 37.884 120.015 36.42C120.879 34.956 122.055 33.816 123.543 33C125.031 32.16 126.735 31.74 128.655 31.74C130.551 31.74 132.243 32.16 133.731 33C135.243 33.816 136.419 34.956 137.259 36.42C138.123 37.86 138.555 39.54 138.555 41.46C138.555 43.356 138.123 45.036 137.259 46.5C136.419 47.964 135.243 49.116 133.731 49.956C132.243 50.796 130.551 51.216 128.655 51.216ZM128.655 48.192C129.879 48.192 130.971 47.916 131.931 47.364C132.915 46.812 133.683 46.032 134.235 45.024C134.787 43.992 135.063 42.804 135.063 41.46C135.063 40.092 134.787 38.916 134.235 37.932C133.683 36.924 132.915 36.144 131.931 35.592C130.971 35.04 129.879 34.764 128.655 34.764C127.431 34.764 126.339 35.04 125.379 35.592C124.419 36.144 123.651 36.924 123.075 37.932C122.499 38.916 122.211 40.092 122.211 41.46C122.211 42.804 122.499 43.992 123.075 45.024C123.651 46.032 124.419 46.812 125.379 47.364C126.339 47.916 127.431 48.192 128.655 48.192ZM143.335 51V24.288H146.791V51H143.335ZM165.233 51V46.968L165.053 46.212V39.336C165.053 37.872 164.621 36.744 163.757 35.952C162.917 35.136 161.645 34.728 159.941 34.728C158.813 34.728 157.709 34.92 156.629 35.304C155.549 35.664 154.637 36.156 153.893 36.78L152.453 34.188C153.437 33.396 154.613 32.796 155.981 32.388C157.373 31.956 158.825 31.74 160.337 31.74C162.953 31.74 164.969 32.376 166.385 33.648C167.801 34.92 168.509 36.864 168.509 39.48V51H165.233ZM158.969 51.216C157.553 51.216 156.305 50.976 155.225 50.496C154.169 50.016 153.353 49.356 152.777 48.516C152.201 47.652 151.913 46.68 151.913 45.6C151.913 44.568 152.153 43.632 152.633 42.792C153.137 41.952 153.941 41.28 155.045 40.776C156.173 40.272 157.685 40.02 159.581 40.02H165.629V42.504H159.725C157.997 42.504 156.833 42.792 156.233 43.368C155.633 43.944 155.333 44.64 155.333 45.456C155.333 46.392 155.705 47.148 156.449 47.724C157.193 48.276 158.225 48.552 159.545 48.552C160.841 48.552 161.969 48.264 162.929 47.688C163.913 47.112 164.621 46.272 165.053 45.168L165.737 47.544C165.281 48.672 164.477 49.572 163.325 50.244C162.173 50.892 160.721 51.216 158.969 51.216ZM185.021 51.216C183.389 51.216 181.913 50.856 180.593 50.136C179.297 49.392 178.265 48.3 177.497 46.86C176.753 45.42 176.381 43.62 176.381 41.46C176.381 39.3 176.765 37.5 177.533 36.06C178.325 34.62 179.369 33.54 180.665 32.82C181.985 32.1 183.437 31.74 185.021 31.74C186.893 31.74 188.549 32.148 189.989 32.964C191.429 33.78 192.569 34.92 193.409 36.384C194.249 37.824 194.669 39.516 194.669 41.46C194.669 43.404 194.249 45.108 193.409 46.572C192.569 48.036 191.429 49.176 189.989 49.992C188.549 50.808 186.893 51.216 185.021 51.216ZM174.905 51V24.288H178.361V36.996L178.001 41.424L178.217 45.852V51H174.905ZM184.733 48.192C185.957 48.192 187.049 47.916 188.009 47.364C188.993 46.812 189.761 46.032 190.313 45.024C190.889 43.992 191.177 42.804 191.177 41.46C191.177 40.092 190.889 38.916 190.313 37.932C189.761 36.924 188.993 36.144 188.009 35.592C187.049 35.04 185.957 34.764 184.733 34.764C183.533 34.764 182.441 35.04 181.457 35.592C180.497 36.144 179.729 36.924 179.153 37.932C178.601 38.916 178.325 40.092 178.325 41.46C178.325 42.804 178.601 43.992 179.153 45.024C179.729 46.032 180.497 46.812 181.457 47.364C182.441 47.916 183.533 48.192 184.733 48.192ZM207.616 51.216C205.696 51.216 203.992 50.796 202.504 49.956C201.016 49.116 199.84 47.964 198.976 46.5C198.112 45.012 197.68 43.332 197.68 41.46C197.68 39.564 198.112 37.884 198.976 36.42C199.84 34.956 201.016 33.816 202.504 33C203.992 32.16 205.696 31.74 207.616 31.74C209.512 31.74 211.204 32.16 212.692 33C214.204 33.816 215.38 34.956 216.22 36.42C217.084 37.86 217.516 39.54 217.516 41.46C217.516 43.356 217.084 45.036 216.22 46.5C215.38 47.964 214.204 49.116 212.692 49.956C211.204 50.796 209.512 51.216 207.616 51.216ZM207.616 48.192C208.84 48.192 209.932 47.916 210.892 47.364C211.876 46.812 212.644 46.032 213.196 45.024C213.748 43.992 214.024 42.804 214.024 41.46C214.024 40.092 213.748 38.916 213.196 37.932C212.644 36.924 211.876 36.144 210.892 35.592C209.932 35.04 208.84 34.764 207.616 34.764C206.392 34.764 205.3 35.04 204.34 35.592C203.38 36.144 202.612 36.924 202.036 37.932C201.46 38.916 201.172 40.092 201.172 41.46C201.172 42.804 201.46 43.992 202.036 45.024C202.612 46.032 203.38 46.812 204.34 47.364C205.3 47.916 206.392 48.192 207.616 48.192ZM222.296 51V31.92H225.608V37.104L225.284 35.808C225.812 34.488 226.7 33.48 227.948 32.784C229.196 32.088 230.732 31.74 232.556 31.74V35.088C232.412 35.064 232.268 35.052 232.124 35.052C232.004 35.052 231.884 35.052 231.764 35.052C229.916 35.052 228.452 35.604 227.372 36.708C226.292 37.812 225.752 39.408 225.752 41.496V51H222.296ZM247.253 51V46.968L247.073 46.212V39.336C247.073 37.872 246.641 36.744 245.777 35.952C244.937 35.136 243.665 34.728 241.961 34.728C240.833 34.728 239.729 34.92 238.649 35.304C237.569 35.664 236.657 36.156 235.913 36.78L234.473 34.188C235.457 33.396 236.633 32.796 238.001 32.388C239.393 31.956 240.845 31.74 242.357 31.74C244.973 31.74 246.989 32.376 248.405 33.648C249.821 34.92 250.529 36.864 250.529 39.48V51H247.253ZM240.989 51.216C239.573 51.216 238.325 50.976 237.245 50.496C236.189 50.016 235.373 49.356 234.797 48.516C234.221 47.652 233.933 46.68 233.933 45.6C233.933 44.568 234.173 43.632 234.653 42.792C235.157 41.952 235.961 41.28 237.065 40.776C238.193 40.272 239.705 40.02 241.601 40.02H247.649V42.504H241.745C240.017 42.504 238.853 42.792 238.253 43.368C237.653 43.944 237.353 44.64 237.353 45.456C237.353 46.392 237.725 47.148 238.469 47.724C239.213 48.276 240.245 48.552 241.565 48.552C242.861 48.552 243.989 48.264 244.949 47.688C245.933 47.112 246.641 46.272 247.073 45.168L247.757 47.544C247.301 48.672 246.497 49.572 245.345 50.244C244.193 50.892 242.741 51.216 240.989 51.216ZM264.808 51.216C262.96 51.216 261.304 50.808 259.84 49.992C258.4 49.176 257.26 48.036 256.42 46.572C255.58 45.108 255.16 43.404 255.16 41.46C255.16 39.516 255.58 37.824 256.42 36.384C257.26 34.92 258.4 33.78 259.84 32.964C261.304 32.148 262.96 31.74 264.808 31.74C266.416 31.74 267.868 32.1 269.164 32.82C270.46 33.54 271.492 34.62 272.26 36.06C273.052 37.5 273.448 39.3 273.448 41.46C273.448 43.62 273.064 45.42 272.296 46.86C271.552 48.3 270.532 49.392 269.236 50.136C267.94 50.856 266.464 51.216 264.808 51.216ZM265.096 48.192C266.296 48.192 267.376 47.916 268.336 47.364C269.32 46.812 270.088 46.032 270.64 45.024C271.216 43.992 271.504 42.804 271.504 41.46C271.504 40.092 271.216 38.916 270.64 37.932C270.088 36.924 269.32 36.144 268.336 35.592C267.376 35.04 266.296 34.764 265.096 34.764C263.872 34.764 262.78 35.04 261.82 35.592C260.86 36.144 260.092 36.924 259.516 37.932C258.94 38.916 258.652 40.092 258.652 41.46C258.652 42.804 258.94 43.992 259.516 45.024C260.092 46.032 260.86 46.812 261.82 47.364C262.78 47.916 263.872 48.192 265.096 48.192ZM271.612 51V45.852L271.828 41.424L271.468 36.996V24.288H274.924V51H271.612ZM289.636 51.216C287.716 51.216 286.012 50.796 284.524 49.956C283.036 49.116 281.86 47.964 280.996 46.5C280.132 45.012 279.7 43.332 279.7 41.46C279.7 39.564 280.132 37.884 280.996 36.42C281.86 34.956 283.036 33.816 284.524 33C286.012 32.16 287.716 31.74 289.636 31.74C291.532 31.74 293.224 32.16 294.712 33C296.224 33.816 297.4 34.956 298.24 36.42C299.104 37.86 299.536 39.54 299.536 41.46C299.536 43.356 299.104 45.036 298.24 46.5C297.4 47.964 296.224 49.116 294.712 49.956C293.224 50.796 291.532 51.216 289.636 51.216ZM289.636 48.192C290.86 48.192 291.952 47.916 292.912 47.364C293.896 46.812 294.664 46.032 295.216 45.024C295.768 43.992 296.044 42.804 296.044 41.46C296.044 40.092 295.768 38.916 295.216 37.932C294.664 36.924 293.896 36.144 292.912 35.592C291.952 35.04 290.86 34.764 289.636 34.764C288.412 34.764 287.32 35.04 286.36 35.592C285.4 36.144 284.632 36.924 284.056 37.932C283.48 38.916 283.192 40.092 283.192 41.46C283.192 42.804 283.48 43.992 284.056 45.024C284.632 46.032 285.4 46.812 286.36 47.364C287.32 47.916 288.412 48.192 289.636 48.192ZM304.315 51V31.92H307.627V37.104L307.303 35.808C307.831 34.488 308.719 33.48 309.967 32.784C311.215 32.088 312.751 31.74 314.575 31.74V35.088C314.431 35.064 314.287 35.052 314.143 35.052C314.023 35.052 313.903 35.052 313.783 35.052C311.935 35.052 310.471 35.604 309.391 36.708C308.311 37.812 307.771 39.408 307.771 41.496V51H304.315Z" fill="white"/>
<defs>
<filter id="filter0_d_646_2" x="0" y="0" width="414" height="84" filterUnits="userSpaceOnUse" color-interpolation-filters="sRGB">
<feFlood flood-opacity="0" result="BackgroundImageFix"/>
<feColorMatrix in="SourceAlpha" type="matrix" values="0 0 0 0 0 0 0 0 0 0 0 0 0 0 0 0 0 0 127 0" result="hardAlpha"/>
<feOffset dy="4"/>
<feGaussianBlur stdDeviation="2"/>
<feComposite in2="hardAlpha" operator="out"/>
<feColorMatrix type="matrix" values="0 0 0 0 0 0 0 0 0 0 0 0 0 0 0 0 0 0 0.25 0"/>
<feBlend mode="normal" in2="BackgroundImageFix" result="effect1_dropShadow_646_2"/>
<feBlend mode="normal" in="SourceGraphic" in2="effect1_dropShadow_646_2" result="shape"/>
</filter>
</defs>
</svg>
