<svg width="776" height="481" viewBox="0 0 776 481" fill="none" xmlns="http://www.w3.org/2000/svg">
<path opacity="0.8" d="M212.278 327.883L245.248 289.285L278.219 250.686L296.831 228.897C297.861 227.691 296.272 225.81 295.242 227.016L262.272 265.614L229.301 304.213L210.689 326.002C209.659 327.208 211.248 329.089 212.278 327.883Z" fill="url(#paint0_linear_0_1)"/>
<path d="M50.355 227.628C77.9692 227.628 100.355 205.242 100.355 177.628C100.355 150.014 77.9692 127.628 50.355 127.628C22.7407 127.628 0.35498 150.014 0.35498 177.628C0.35498 205.242 22.7407 227.628 50.355 227.628Z" fill="#E6E6E6"/>
<path d="M45.355 148.628C48.6687 148.628 51.355 146.166 51.355 143.128C51.355 140.09 48.6687 137.628 45.355 137.628C42.0413 137.628 39.355 140.09 39.355 143.128C39.355 146.166 42.0413 148.628 45.355 148.628Z" fill="#CBCBCB"/>
<path d="M55.355 206.628C58.6687 206.628 61.355 203.942 61.355 200.628C61.355 197.314 58.6687 194.628 55.355 194.628C52.0413 194.628 49.355 197.314 49.355 200.628C49.355 203.942 52.0413 206.628 55.355 206.628Z" fill="#CBCBCB"/>
<path d="M77.355 172.628C79.5641 172.628 81.355 170.837 81.355 168.628C81.355 166.419 79.5641 164.628 77.355 164.628C75.1458 164.628 73.355 166.419 73.355 168.628C73.355 170.837 75.1458 172.628 77.355 172.628Z" fill="#CBCBCB"/>
<path d="M30.355 194.628C37.5347 194.628 43.355 188.808 43.355 181.628C43.355 174.448 37.5347 168.628 30.355 168.628C23.1753 168.628 17.355 174.448 17.355 181.628C17.355 188.808 23.1753 194.628 30.355 194.628Z" fill="#CBCBCB"/>
<path d="M140.37 284.417C142.345 284.417 143.946 282.816 143.946 280.841C143.946 278.866 142.345 277.264 140.37 277.264C138.395 277.264 136.793 278.866 136.793 280.841C136.793 282.816 138.395 284.417 140.37 284.417Z" fill="#6C63FF"/>
<path d="M171.367 332.721L169.582 334.494L167.809 332.709L166.619 333.891L168.392 335.676L166.607 337.449L167.789 338.639L169.574 336.866L171.347 338.651L172.537 337.469L170.764 335.684L172.549 333.911L171.367 332.721Z" fill="#E6E6E6"/>
<path d="M185.673 229.003L183.888 230.776L182.115 228.991L180.925 230.173L182.698 231.958L180.913 233.731L182.095 234.921L183.88 233.148L185.653 234.933L186.843 233.751L185.07 231.966L186.855 230.193L185.673 229.003Z" fill="#E6E6E6"/>
<path d="M230.634 32.1838C226.772 34.757 222.819 28.6326 226.755 26.1736C230.617 23.6006 234.57 29.725 230.634 32.1838Z" fill="#E6E6E6"/>
<path d="M6.912 298.356L4.455 297.817L4.993 295.359L3.355 295L2.816 297.458L0.359001 296.92L0 298.558L2.457 299.097L1.91901 301.554L3.55701 301.913L4.096 299.455L6.553 299.994L6.912 298.356Z" fill="#E6E6E6"/>
<path d="M382.912 3.356L380.455 2.817L380.993 0.359001L379.355 0L378.816 2.458L376.359 1.92L376 3.558L378.457 4.097L377.919 6.554L379.557 6.913L380.096 4.455L382.553 4.994L382.912 3.356Z" fill="#E6E6E6"/>
<path d="M574.912 162.356L572.455 161.817L572.993 159.359L571.355 159L570.816 161.458L568.359 160.92L568 162.558L570.457 163.097L569.919 165.554L571.557 165.913L572.096 163.455L574.553 163.994L574.912 162.356Z" fill="#E6E6E6"/>
<path d="M110.815 42.134L108.358 41.595L108.896 39.138L107.258 38.779L106.719 41.236L104.261 40.698L103.902 42.336L106.36 42.875L105.822 45.333L107.46 45.691L107.999 43.234L110.456 43.772L110.815 42.134Z" fill="#E6E6E6"/>
<path d="M343.695 123.755C345.67 123.755 347.271 122.154 347.271 120.179C347.271 118.204 345.67 116.602 343.695 116.602C341.719 116.602 340.118 118.204 340.118 120.179C340.118 122.154 341.719 123.755 343.695 123.755Z" fill="#6C63FF"/>
<path d="M316.912 174.356L314.455 173.817L314.993 171.359L313.355 171L312.816 173.458L310.359 172.92L310 174.558L312.457 175.097L311.919 177.554L313.557 177.913L314.096 175.455L316.553 175.994L316.912 174.356Z" fill="#E6E6E6"/>
<path d="M411.815 130.134L409.358 129.595L409.896 127.138L408.258 126.779L407.719 129.236L405.261 128.698L404.902 130.336L407.36 130.875L406.822 133.333L408.46 133.691L408.999 131.234L411.456 131.772L411.815 130.134Z" fill="#E6E6E6"/>
<path d="M79.8624 153.257C76.0004 155.83 72.0476 149.706 75.9839 147.247C79.8457 144.674 83.7984 150.798 79.8624 153.257Z" fill="#E6E6E6"/>
<path opacity="0.8" d="M512.923 219.255L545.893 180.657L578.864 142.058L597.476 120.269C598.506 119.063 596.917 117.182 595.887 118.388L562.917 156.986L529.946 195.585L511.334 217.374C510.304 218.58 511.893 220.461 512.923 219.255Z" fill="url(#paint1_linear_0_1)"/>
<path d="M449.913 477.355L447.456 476.816L447.994 474.359L446.356 474L445.817 476.457L443.359 475.919L443 477.557L445.458 478.096L444.92 480.554L446.558 480.912L447.097 478.455L449.554 478.993L449.913 477.355Z" fill="#E6E6E6"/>
<path d="M578.912 383.356L576.455 382.817L576.993 380.359L575.355 380L574.816 382.458L572.359 381.92L572 383.558L574.457 384.097L573.919 386.554L575.557 386.913L576.096 384.455L578.553 384.994L578.912 383.356Z" fill="#E6E6E6"/>
<path d="M553.576 474.153C555.552 474.153 557.153 472.552 557.153 470.577C557.153 468.601 555.552 467 553.576 467C551.601 467 550 468.601 550 470.577C550 472.552 551.601 474.153 553.576 474.153Z" fill="#6C63FF"/>
<path d="M771.576 135.153C773.552 135.153 775.153 133.552 775.153 131.576C775.153 129.601 773.552 128 771.576 128C769.601 128 768 129.601 768 131.576C768 133.552 769.601 135.153 771.576 135.153Z" fill="#6C63FF"/>
<path d="M735.912 258.356L733.455 257.817L733.993 255.359L732.355 255L731.816 257.458L729.359 256.92L729 258.558L731.457 259.097L730.919 261.554L732.557 261.913L733.096 259.455L735.553 259.994L735.912 258.356Z" fill="#E6E6E6"/>
<path d="M649.576 255.153C651.552 255.153 653.153 253.552 653.153 251.576C653.153 249.601 651.552 248 649.576 248C647.601 248 646 249.601 646 251.576C646 253.552 647.601 255.153 649.576 255.153Z" fill="#6C63FF"/>
<path d="M731.912 208.356L729.455 207.817L729.993 205.359L728.355 205L727.816 207.458L725.359 206.92L725 208.558L727.457 209.097L726.919 211.554L728.557 211.913L729.096 209.455L731.553 209.994L731.912 208.356Z" fill="#E6E6E6"/>
<defs>
<linearGradient id="paint0_linear_0_1" x1="210.355" y1="277.45" x2="297.165" y2="277.45" gradientUnits="userSpaceOnUse">
<stop stop-color="white"/>
<stop offset="1" stop-color="white" stop-opacity="0.3"/>
</linearGradient>
<linearGradient id="paint1_linear_0_1" x1="511" y1="168.822" x2="597.81" y2="168.822" gradientUnits="userSpaceOnUse">
<stop stop-color="white"/>
<stop offset="1" stop-color="white" stop-opacity="0.3"/>
</linearGradient>
</defs>
</svg>
