<svg width="181" height="179" viewBox="0 0 181 179" fill="none" xmlns="http://www.w3.org/2000/svg">
<path d="M57.7331 0C55.6723 0.00261454 54.0023 1.8586 54 4.14884V76.8512C54.0023 79.1414 55.6723 80.9974 57.7331 81H150.267C152.328 80.9974 153.998 79.1414 154 76.8512V4.14884C153.998 1.8586 152.328 0.0026078 150.267 0H57.7331Z" fill="#E6E6E6"/>
<path d="M116.441 77H60.0035C57.7934 76.9972 56.0024 74.9962 56 72.527V6.47301C56.0024 4.00383 57.7934 2.00278 60.0035 2H146.996C149.206 2.00276 150.998 4.00379 151 6.47301V38.3896C150.978 59.7035 135.519 76.9759 116.441 77Z" fill="white"/>
<path d="M94.7171 21H81.2829C80.5744 21 80 20.3284 80 19.5C80 18.6716 80.5744 18 81.2829 18H94.7171C95.4256 18 96 18.6716 96 19.5C96 20.3284 95.4256 21 94.7171 21Z" fill="#6C63FF"/>
<path d="M124.72 26H81.2797C80.573 26 80 25.5523 80 25C80 24.4477 80.573 24 81.2797 24H124.72C125.427 24 126 24.4477 126 25C126 25.5523 125.427 26 124.72 26Z" fill="#E6E6E6"/>
<path d="M124.72 33H81.2797C80.573 33 80 32.3284 80 31.5C80 30.6716 80.573 30 81.2797 30H124.72C125.427 30 126 30.6716 126 31.5C126 32.3284 125.427 33 124.72 33Z" fill="#E6E6E6"/>
<path d="M124.72 40H81.2797C80.573 40 80 39.3284 80 38.5C80 37.6716 80.573 37 81.2797 37H124.72C125.427 37 126 37.6716 126 38.5C126 39.3284 125.427 40 124.72 40Z" fill="#E6E6E6"/>
<path d="M124.72 47H81.2797C80.573 47 80 46.3284 80 45.5C80 44.6716 80.573 44 81.2797 44H124.72C125.427 44 126 44.6716 126 45.5C126 46.3284 125.427 47 124.72 47Z" fill="#E6E6E6"/>
<path d="M159.874 50.5064H141.574C137.935 50.5064 134.984 53.7998 134.984 57.8624C134.984 61.9249 132.034 65.2183 128.395 65.2183H67.3837C63.7443 65.2183 60.794 61.925 60.794 57.8624L59.5876 50.4054L48.5284 34.6666C47.7942 33.6048 46.6569 32.9881 45.4553 33.0002H24.7151C22.5592 33.0031 20.8121 34.9533 20.8095 37.3599L20.3813 50.4054H12.5404C5.61453 50.4054 0 56.6728 0 64.4041V155.577C0 162.438 4.98243 168 11.1286 168H159.874C166.017 167.992 170.994 162.434 171 155.577V62.9257C171 56.0667 166.019 50.5064 159.874 50.5064Z" fill="#00A3FF" fill-opacity="0.27"/>
<path d="M60 50H21V37.2584C21.0026 34.9078 22.7594 33.003 24.9273 33.0002H45.7829C46.9912 32.9883 48.1349 33.5907 48.8732 34.6278L60 50Z" fill="#E6E6E6"/>
<path d="M165 179C156.163 179 149 170.941 149 161C149 151.059 156.163 143 165 143C173.837 143 181 151.059 181 161C181 170.941 173.837 179 165 179Z" fill="#6C63FF"/>
<path d="M171.4 159.2H166.6V153.8C166.6 152.806 165.884 152 165 152C164.116 152 163.4 152.806 163.4 153.8V159.2H158.6C157.716 159.2 157 160.006 157 161C157 161.994 157.716 162.8 158.6 162.8H163.4V168.2C163.4 169.194 164.116 170 165 170C165.884 170 166.6 169.194 166.6 168.2V162.8H171.4C172.284 162.8 173 161.994 173 161C173 160.006 172.284 159.2 171.4 159.2Z" fill="white"/>
<path d="M57.7331 0C55.6723 0.00261454 54.0023 1.8586 54 4.14884V76.8512C54.0023 79.1414 55.6723 80.9974 57.7331 81H150.267C152.328 80.9974 153.998 79.1414 154 76.8512V4.14884C153.998 1.8586 152.328 0.0026078 150.267 0H57.7331Z" fill="#E6E6E6"/>
<path d="M116.441 77H60.0035C57.7934 76.9972 56.0024 74.9962 56 72.527V6.47301C56.0024 4.00383 57.7934 2.00278 60.0035 2H146.996C149.206 2.00276 150.998 4.00379 151 6.47301V38.3896C150.978 59.7035 135.519 76.9759 116.441 77Z" fill="white"/>
<path d="M94.7171 21H81.2829C80.5744 21 80 20.3284 80 19.5C80 18.6716 80.5744 18 81.2829 18H94.7171C95.4256 18 96 18.6716 96 19.5C96 20.3284 95.4256 21 94.7171 21Z" fill="#6C63FF"/>
<path d="M124.72 26H81.2797C80.573 26 80 25.5523 80 25C80 24.4477 80.573 24 81.2797 24H124.72C125.427 24 126 24.4477 126 25C126 25.5523 125.427 26 124.72 26Z" fill="#E6E6E6"/>
<path d="M124.72 33H81.2797C80.573 33 80 32.3284 80 31.5C80 30.6716 80.573 30 81.2797 30H124.72C125.427 30 126 30.6716 126 31.5C126 32.3284 125.427 33 124.72 33Z" fill="#E6E6E6"/>
<path d="M124.72 40H81.2797C80.573 40 80 39.3284 80 38.5C80 37.6716 80.573 37 81.2797 37H124.72C125.427 37 126 37.6716 126 38.5C126 39.3284 125.427 40 124.72 40Z" fill="#E6E6E6"/>
<path d="M124.72 47H81.2797C80.573 47 80 46.3284 80 45.5C80 44.6716 80.573 44 81.2797 44H124.72C125.427 44 126 44.6716 126 45.5C126 46.3284 125.427 47 124.72 47Z" fill="#E6E6E6"/>
<path d="M159.874 50.5064H141.574C137.935 50.5064 134.984 53.7998 134.984 57.8624C134.984 61.9249 132.034 65.2183 128.395 65.2183H67.3837C63.7443 65.2183 60.794 61.925 60.794 57.8624L59.5876 50.4054L48.5284 34.6666C47.7942 33.6048 46.6569 32.9881 45.4553 33.0002H24.7151C22.5592 33.0031 20.8121 34.9533 20.8095 37.3599L20.3813 50.4054H12.5404C5.61453 50.4054 0 56.6728 0 64.4041V155.577C0 162.438 4.98243 168 11.1286 168H159.874C166.017 167.992 170.994 162.434 171 155.577V62.9257C171 56.0667 166.019 50.5064 159.874 50.5064Z" fill="#00A3FF" fill-opacity="0.27"/>
<path d="M60 50H21V37.2584C21.0026 34.9078 22.7594 33.003 24.9273 33.0002H45.7829C46.9912 32.9883 48.1349 33.5907 48.8732 34.6278L60 50Z" fill="#CCCCCC"/>
<path d="M165 179C156.163 179 149 170.941 149 161C149 151.059 156.163 143 165 143C173.837 143 181 151.059 181 161C181 170.941 173.837 179 165 179Z" fill="#6C63FF"/>
<path d="M171.4 159.2H166.6V153.8C166.6 152.806 165.884 152 165 152C164.116 152 163.4 152.806 163.4 153.8V159.2H158.6C157.716 159.2 157 160.006 157 161C157 161.994 157.716 162.8 158.6 162.8H163.4V168.2C163.4 169.194 164.116 170 165 170C165.884 170 166.6 169.194 166.6 168.2V162.8H171.4C172.284 162.8 173 161.994 173 161C173 160.006 172.284 159.2 171.4 159.2Z" fill="white"/>
</svg>
