<svg version="1.1" id="Layer_1" xmlns="http://www.w3.org/2000/svg" xmlns:xlink="http://www.w3.org/1999/xlink" x="0px" y="0px"
	 width="100%" viewBox="0 0 2781 590" enable-background="new 0 0 2781 590" xml:space="preserve">
<path fill="#FFFFFF" opacity="1.000000" stroke="none" 
	d="
M622.000000,591.000000 
	C563.640869,591.000000 505.281677,591.000000 446.461426,590.531372 
	C446.000305,560.479675 446.000305,530.896606 446.000305,501.000336 
	C448.180481,501.000336 449.815613,501.000305 451.450775,501.000305 
	C475.433594,501.000427 499.421326,501.280060 523.396729,500.857574 
	C532.469666,500.697662 541.704346,499.746033 550.535400,497.718506 
	C575.563477,491.972382 596.948547,479.984863 613.159241,459.438812 
	C628.953796,439.420135 636.887695,416.657135 637.914062,391.395508 
	C638.160217,385.337311 637.315613,379.236511 637.004395,373.153656 
	C636.302429,359.432312 632.137634,346.585938 626.569824,334.223694 
	C621.282288,322.483551 613.098022,312.761749 603.617981,304.117004 
	C593.782532,295.148193 582.680298,288.314941 570.067139,283.949005 
	C553.461304,278.200989 536.626709,275.367432 518.824646,275.755310 
	C481.702209,276.564178 444.549866,275.987152 407.409821,276.007294 
	C394.922211,276.014038 382.434662,276.104645 369.534912,276.291077 
	C369.081848,278.253601 369.005219,280.081970 369.005127,281.910339 
	C368.999390,384.940216 369.000000,487.970123 369.000000,591.000000 
	C246.423508,591.000000 123.847031,591.000000 1.000000,591.000000 
	C1.000000,522.307739 1.000000,453.615143 1.334138,384.586914 
	C13.791190,407.543060 25.914104,430.834839 38.179462,454.400330 
	C82.442009,431.205475 126.174248,408.288544 169.478821,385.595703 
	C214.237946,434.939972 269.072632,460.888977 334.724304,465.007141 
	C334.724304,446.134949 334.724304,427.733612 334.724304,409.356049 
	C282.008270,404.999512 239.597092,381.326965 211.015717,347.610596 
	C178.790741,309.596008 164.720062,265.767975 169.096222,216.337112 
	C176.226807,135.794067 240.195892,65.486870 328.671997,57.249607 
	C377.473267,52.706131 421.810974,66.557365 458.966064,98.819130 
	C501.162354,135.458191 521.801270,182.550308 521.132935,238.681473 
	C539.929810,238.681473 558.317139,238.681473 577.405151,238.681473 
	C576.914856,233.255066 576.530640,228.192169 575.986816,223.146469 
	C574.706116,211.263519 573.957642,199.282410 571.903259,187.531693 
	C566.816345,158.435104 555.343750,131.796585 539.508606,106.932793 
	C527.095886,87.442696 511.564606,70.801193 494.237518,55.637249 
	C481.623138,44.597626 467.993011,34.968597 452.992645,27.759619 
	C438.825684,20.951166 424.098419,15.052180 409.142242,10.226409 
	C397.919373,6.605225 385.950287,5.281893 374.298004,3.014650 
	C370.222321,2.221624 366.100647,1.664728 362.000000,0.999999 
	C1168.553345,1.000000 1975.106567,1.000000 2782.000000,1.000000 
	C2782.000000,196.692368 2782.000000,392.384949 2781.659668,588.404785 
	C2778.235596,581.555908 2775.082764,574.408508 2772.081787,567.197937 
	C2764.025635,547.840576 2756.108398,528.425049 2747.997070,509.090668 
	C2738.809814,487.191437 2729.399902,465.385590 2720.218750,443.483948 
	C2709.407227,417.693573 2698.741455,391.842041 2688.002930,366.021088 
	C2681.260986,349.810059 2674.534424,333.592499 2667.738037,317.404205 
	C2662.195801,304.203094 2656.635986,291.007690 2650.850586,277.912842 
	C2650.261230,276.578949 2648.074707,275.130554 2646.620361,275.120911 
	C2621.124756,274.952301 2595.627686,274.931885 2570.132812,275.151581 
	C2568.411865,275.166382 2565.876221,276.964355 2565.138428,278.580750 
	C2561.293213,287.005005 2557.956787,295.659912 2554.352783,304.196259 
	C2543.343994,330.271118 2532.208984,356.292938 2521.284668,382.402924 
	C2510.744385,407.594818 2500.427490,432.879913 2489.969238,458.106262 
	C2483.247559,474.320465 2476.457031,490.506348 2469.681641,506.698212 
	C2462.712891,523.351501 2455.655762,539.968323 2448.768311,556.655029 
	C2444.062744,568.055481 2439.581543,579.548462 2435.000000,591.000000 
	C2107.974121,591.000000 1780.948364,591.000000 1453.461182,590.531372 
	C1453.000000,560.477905 1453.000000,530.893127 1453.000000,501.000000 
	C1455.434082,501.000000 1457.241089,501.000000 1459.048096,501.000000 
	C1481.704712,501.000000 1504.367310,501.308472 1527.015015,500.856384 
	C1536.811890,500.660797 1546.781250,499.803314 1556.317017,497.663818 
	C1579.907349,492.371033 1600.548950,481.725739 1616.724609,462.949249 
	C1632.643433,444.471191 1641.715942,423.139313 1643.705078,399.205444 
	C1644.719849,386.995117 1643.618530,374.389587 1641.802002,362.212067 
	C1638.668335,341.206299 1629.288574,322.872101 1614.191772,307.758209 
	C1605.091187,298.647247 1594.515991,291.530731 1582.715942,286.325287 
	C1566.236206,279.055542 1548.858154,275.873444 1530.494507,275.093292 
	C1480.044312,275.016846 1430.054810,275.003326 1380.065308,275.048126 
	C1378.764526,275.049286 1377.464355,275.687103 1376.094727,276.490295 
	C1376.017212,381.635101 1376.008545,486.317535 1376.000000,591.000000 
	C1355.974121,591.000000 1335.948364,591.000000 1315.461182,590.531372 
	C1315.000000,485.129883 1315.000000,380.197083 1315.000000,275.292053 
	C1288.710205,275.292053 1262.976074,275.292053 1236.954468,275.292053 
	C1236.954468,338.834686 1236.954468,402.072815 1236.954468,465.854675 
	C1235.052124,463.609070 1233.443237,461.890259 1232.035522,460.020111 
	C1219.462036,443.316620 1206.941406,426.573364 1194.370117,409.868164 
	C1184.606323,396.893677 1174.765015,383.977478 1165.007935,370.998047 
	C1151.513794,353.047424 1138.072144,335.057312 1124.597168,317.092407 
	C1115.099854,304.430847 1105.494751,291.848602 1096.147217,279.077637 
	C1094.122437,276.311218 1092.121460,274.905396 1088.572632,274.926300 
	C1065.573486,275.061920 1042.573242,274.991516 1019.573364,275.006317 
	C1018.133789,275.007263 1016.694336,275.158630 1015.355469,275.234314 
	C1015.187927,275.886353 1015.039429,276.194519 1015.039368,276.502716 
	C1015.019531,381.335144 1015.009888,486.167572 1015.000000,591.000000 
	C999.640808,591.000000 984.281677,591.000000 968.461182,590.601135 
	C962.908630,577.579102 957.883484,564.928833 952.706970,552.340698 
	C947.889893,540.626648 942.890808,528.987671 938.009644,517.299805 
	C932.646484,504.457947 927.354553,491.586304 921.979126,478.749573 
	C917.019836,466.906403 911.976501,455.098480 906.996826,443.263794 
	C900.656677,428.195953 894.374084,413.103851 888.010071,398.046173 
	C881.389771,382.382172 874.658630,366.764923 868.055969,351.093506 
	C861.395020,335.283752 854.811707,319.441162 848.234070,303.596497 
	C844.305725,294.133636 840.453674,284.639130 836.500793,274.996582 
	C809.778748,274.996582 782.959839,274.952271 756.142090,275.112427 
	C754.617371,275.121521 752.317139,276.445526 751.711182,277.768280 
	C747.915710,286.054321 744.438354,294.488922 740.970459,302.921539 
	C734.935913,317.595062 729.116882,332.358459 722.963013,346.981323 
	C716.124939,363.230286 708.846375,379.294586 702.061096,395.564972 
	C692.553467,418.363068 683.424194,441.318787 673.943420,464.128265 
	C666.799683,481.315186 659.260071,498.337250 652.075195,515.507446 
	C643.840332,535.186768 635.740906,554.923462 627.720398,574.691162 
	C625.557007,580.023376 623.893127,585.558167 622.000000,591.000000 
M2227.019531,297.495270 
	C2218.969238,293.307892 2211.146484,288.587372 2202.824219,285.037720 
	C2181.690674,276.023804 2158.965088,275.675537 2136.635986,275.240570 
	C2094.002197,274.410034 2051.340576,274.999786 2008.690674,275.000000 
	C2006.915527,275.000000 2005.140259,275.000000 2003.288086,275.000000 
	C2003.288086,380.247742 2003.288086,484.941589 2003.288086,590.000000 
	C2005.366577,590.000000 2007.169922,590.000000 2008.973389,590.000000 
	C2053.289307,590.000000 2097.607178,590.210876 2141.920166,589.860474 
	C2153.878418,589.765991 2166.033203,589.037231 2177.731934,586.738586 
	C2204.944580,581.391785 2230.047607,571.270386 2248.336182,549.039246 
	C2254.233887,541.870300 2260.043457,534.459961 2264.687256,526.459839 
	C2279.296143,501.292236 2285.042236,473.493011 2285.750000,444.817322 
	C2286.146973,428.733246 2284.444092,412.546051 2282.916016,396.478668 
	C2280.968018,375.993622 2274.691406,356.752014 2264.418213,338.829041 
	C2255.075928,322.529724 2243.341553,308.450897 2227.019531,297.495270 
M1685.000000,456.500000 
	C1685.000000,500.915588 1685.000000,545.331177 1685.000000,589.618408 
	C1771.064575,589.618408 1856.443359,589.618408 1941.745117,589.618408 
	C1941.745117,571.633118 1941.745117,554.030457 1941.745117,535.917236 
	C1879.109375,535.917236 1816.726318,535.917236 1754.347168,535.917236 
	C1754.347168,507.683258 1754.347168,479.964203 1754.347168,451.734161 
	C1810.743896,451.734161 1866.794922,451.734161 1922.742920,451.734161 
	C1922.742920,433.615540 1922.742920,416.011780 1922.742920,397.902313 
	C1866.435181,397.902313 1810.383545,397.902313 1754.353516,397.902313 
	C1754.353516,374.671448 1754.353516,351.951599 1754.353516,328.720978 
	C1814.755615,328.720978 1874.805664,328.720978 1934.729004,328.720978 
	C1934.729004,310.602417 1934.729004,292.999481 1934.729004,275.306946 
	C1851.411865,275.306946 1768.366089,275.306946 1685.000000,275.306946 
	C1685.000000,335.575562 1685.000000,395.537781 1685.000000,456.500000 
M2400.000000,298.500000 
	C2400.000000,290.741119 2400.000000,282.982239 2400.000000,275.399475 
	C2376.578125,275.399475 2353.857178,275.399475 2331.260986,275.399475 
	C2331.260986,380.392853 2331.260986,484.986603 2331.260986,589.688354 
	C2354.242920,589.688354 2376.962891,589.688354 2400.000000,589.688354 
	C2400.000000,492.751404 2400.000000,396.125702 2400.000000,298.500000 
z"/>
<path fill="#404040" opacity="1.000000" stroke="none" 
	d="
M1015.468628,591.000000 
	C1015.009888,486.167572 1015.019531,381.335144 1015.039368,276.502716 
	C1015.039429,276.194519 1015.187927,275.886353 1015.355469,275.234314 
	C1016.694336,275.158630 1018.133789,275.007263 1019.573364,275.006317 
	C1042.573242,274.991516 1065.573486,275.061920 1088.572632,274.926300 
	C1092.121460,274.905396 1094.122437,276.311218 1096.147217,279.077637 
	C1105.494751,291.848602 1115.099854,304.430847 1124.597168,317.092407 
	C1138.072144,335.057312 1151.513794,353.047424 1165.007935,370.998047 
	C1174.765015,383.977478 1184.606323,396.893677 1194.370117,409.868164 
	C1206.941406,426.573364 1219.462036,443.316620 1232.035522,460.020111 
	C1233.443237,461.890259 1235.052124,463.609070 1236.954468,465.854675 
	C1236.954468,402.072815 1236.954468,338.834686 1236.954468,275.292053 
	C1262.976074,275.292053 1288.710205,275.292053 1315.000000,275.292053 
	C1315.000000,380.197083 1315.000000,485.129883 1315.000000,590.531372 
	C1288.979126,591.000000 1262.958130,591.000000 1236.376465,590.659973 
	C1232.083618,585.254089 1228.402100,580.149963 1224.610352,575.129272 
	C1212.072266,558.528198 1199.442505,541.996216 1186.947266,525.363159 
	C1175.312134,509.874939 1163.803833,494.291626 1152.240723,478.749359 
	C1142.789917,466.046265 1133.370239,453.319733 1123.882324,440.644348 
	C1113.817749,427.198517 1103.688721,413.800873 1093.000000,399.601257 
	C1093.000000,464.153351 1093.000000,527.576660 1093.000000,591.000000 
	C1067.312500,591.000000 1041.624878,591.000000 1015.468628,591.000000 
z"/>
<path fill="#00C5FF" opacity="1.000000" stroke="none" 
	d="
M361.531342,0.999999 
	C366.100647,1.664728 370.222321,2.221624 374.298004,3.014650 
	C385.950287,5.281893 397.919373,6.605225 409.142242,10.226409 
	C424.098419,15.052180 438.825684,20.951166 452.992645,27.759619 
	C467.993011,34.968597 481.623138,44.597626 494.237518,55.637249 
	C511.564606,70.801193 527.095886,87.442696 539.508606,106.932793 
	C555.343750,131.796585 566.816345,158.435104 571.903259,187.531693 
	C573.957642,199.282410 574.706116,211.263519 575.986816,223.146469 
	C576.530640,228.192169 576.914856,233.255066 577.405151,238.681473 
	C558.317139,238.681473 539.929810,238.681473 521.132935,238.681473 
	C521.801270,182.550308 501.162354,135.458191 458.966064,98.819130 
	C421.810974,66.557365 377.473267,52.706131 328.671997,57.249607 
	C240.195892,65.486870 176.226807,135.794067 169.096222,216.337112 
	C164.720062,265.767975 178.790741,309.596008 211.015717,347.610596 
	C239.597092,381.326965 282.008270,404.999512 334.724304,409.356049 
	C334.724304,427.733612 334.724304,446.134949 334.724304,465.007141 
	C269.072632,460.888977 214.237946,434.939972 169.478821,385.595703 
	C126.174248,408.288544 82.442009,431.205475 38.179462,454.400330 
	C25.914104,430.834839 13.791190,407.543060 1.334138,384.125641 
	C1.000000,383.555542 1.000000,383.111115 1.370482,382.325562 
	C11.251342,376.969604 20.749277,371.930969 30.274628,366.944702 
	C51.962189,355.591827 73.663589,344.265411 95.358643,332.926819 
	C106.183640,327.269287 117.006996,321.608551 127.258865,316.248444 
	C124.218079,305.436127 120.587944,295.298462 118.621552,284.847778 
	C116.057632,271.221497 114.113853,257.392303 113.217903,243.565231 
	C112.482033,232.208603 113.186630,220.687317 114.143013,209.313889 
	C114.974525,199.425400 116.508263,189.519272 118.687073,179.835907 
	C124.045883,156.019379 133.405212,133.785797 145.966232,112.803696 
	C160.776505,88.064438 179.829681,67.139168 202.347717,49.404144 
	C217.356079,37.583683 233.674835,27.673935 251.377136,20.278093 
	C271.725586,11.776726 292.581665,5.083868 314.694397,2.955977 
	C318.820801,2.558896 322.899353,1.664752 327.000000,1.000001 
	C338.354218,1.000000 349.708466,1.000000 361.531342,0.999999 
z"/>
<path fill="#404040" opacity="1.000000" stroke="none" 
	d="
M622.468628,591.000000 
	C623.893127,585.558167 625.557007,580.023376 627.720398,574.691162 
	C635.740906,554.923462 643.840332,535.186768 652.075195,515.507446 
	C659.260071,498.337250 666.799683,481.315186 673.943420,464.128265 
	C683.424194,441.318787 692.553467,418.363068 702.061096,395.564972 
	C708.846375,379.294586 716.124939,363.230286 722.963013,346.981323 
	C729.116882,332.358459 734.935913,317.595062 740.970459,302.921539 
	C744.438354,294.488922 747.915710,286.054321 751.711182,277.768280 
	C752.317139,276.445526 754.617371,275.121521 756.142090,275.112427 
	C782.959839,274.952271 809.778748,274.996582 836.500793,274.996582 
	C840.453674,284.639130 844.305725,294.133636 848.234070,303.596497 
	C854.811707,319.441162 861.395020,335.283752 868.055969,351.093506 
	C874.658630,366.764923 881.389771,382.382172 888.010071,398.046173 
	C894.374084,413.103851 900.656677,428.195953 906.996826,443.263794 
	C911.976501,455.098480 917.019836,466.906403 921.979126,478.749573 
	C927.354553,491.586304 932.646484,504.457947 938.009644,517.299805 
	C942.890808,528.987671 947.889893,540.626648 952.706970,552.340698 
	C957.883484,564.928833 962.908630,577.579102 967.999878,590.601135 
	C941.645752,591.000000 915.291565,591.000000 888.463257,590.614807 
	C887.524475,588.864807 887.129517,587.471497 886.584595,586.139526 
	C879.671570,569.240173 872.813171,552.317139 865.656738,535.521240 
	C865.108582,534.234741 862.295532,532.991577 860.739197,533.206360 
	C850.818359,534.575317 841.007324,537.186462 831.060425,537.818420 
	C814.877197,538.846558 798.618896,538.793030 782.389771,538.968201 
	C764.526978,539.161011 746.912292,536.964050 729.456360,533.172668 
	C727.890625,532.832520 724.775269,534.243591 724.183289,535.618164 
	C716.267822,553.997925 708.673889,572.516174 701.000000,591.000000 
	C674.979126,591.000000 648.958191,591.000000 622.468628,591.000000 
M780.054321,399.725555 
	C779.130981,402.272827 778.309265,404.862427 777.268066,407.360565 
	C769.427490,426.172974 761.581665,444.983398 753.633911,463.750610 
	C752.400269,466.663727 753.403198,467.702942 756.164978,468.002136 
	C762.170288,468.652618 768.184265,469.982605 774.174316,469.877014 
	C794.161194,469.524750 814.139954,468.682190 834.119751,467.970490 
	C836.751465,467.876740 837.522217,466.456024 836.499268,463.949554 
	C833.601746,456.850006 830.819641,449.703339 827.921936,442.603882 
	C821.934143,427.933258 815.931824,413.268372 809.876648,398.625458 
	C805.129639,387.145844 800.294128,375.702820 795.313477,363.802887 
	C790.261475,375.783844 785.358337,387.411896 780.054321,399.725555 
z"/>
<path fill="#00C5FF" opacity="1.000000" stroke="none" 
	d="
M2435.468750,591.000000 
	C2439.581543,579.548462 2444.062744,568.055481 2448.768311,556.655029 
	C2455.655762,539.968323 2462.712891,523.351501 2469.681641,506.698212 
	C2476.457031,490.506348 2483.247559,474.320465 2489.969238,458.106262 
	C2500.427490,432.879913 2510.744385,407.594818 2521.284668,382.402924 
	C2532.208984,356.292938 2543.343994,330.271118 2554.352783,304.196259 
	C2557.956787,295.659912 2561.293213,287.005005 2565.138428,278.580750 
	C2565.876221,276.964355 2568.411865,275.166382 2570.132812,275.151581 
	C2595.627686,274.931885 2621.124756,274.952301 2646.620361,275.120911 
	C2648.074707,275.130554 2650.261230,276.578949 2650.850586,277.912842 
	C2656.635986,291.007690 2662.195801,304.203094 2667.738037,317.404205 
	C2674.534424,333.592499 2681.260986,349.810059 2688.002930,366.021088 
	C2698.741455,391.842041 2709.407227,417.693573 2720.218750,443.483948 
	C2729.399902,465.385590 2738.809814,487.191437 2747.997070,509.090668 
	C2756.108398,528.425049 2764.025635,547.840576 2772.081787,567.197937 
	C2775.082764,574.408508 2778.235596,581.555908 2781.659668,588.866028 
	C2782.611084,592.048218 2780.296143,590.964600 2779.026855,590.967407 
	C2758.139648,591.013245 2737.252197,591.000000 2716.364990,591.000000 
	C2711.889160,591.000000 2707.413330,591.000000 2702.360352,590.651245 
	C2694.239014,572.331543 2686.500977,554.437744 2679.315674,536.324524 
	C2677.888916,532.727600 2676.166748,532.866699 2673.396484,533.254211 
	C2659.485107,535.200134 2645.615479,537.739502 2631.634521,538.804016 
	C2619.352783,539.739258 2606.943359,538.989136 2594.590332,539.003113 
	C2577.130371,539.022949 2559.939209,536.757324 2542.895020,533.101013 
	C2540.221924,532.527466 2538.072021,532.840637 2536.896729,536.313293 
	C2534.609619,543.070862 2531.627686,549.592285 2528.959473,556.221924 
	C2524.295654,567.810364 2519.652100,579.406860 2515.000000,591.000000 
	C2488.645752,591.000000 2462.291748,591.000000 2435.468750,591.000000 
M2575.929199,443.277954 
	C2572.574951,451.098114 2569.220947,458.918304 2565.548340,467.481262 
	C2594.632812,470.926971 2622.578125,471.256226 2651.369141,467.380005 
	C2637.070801,432.476074 2623.076660,398.314636 2608.833008,363.544434 
	C2597.664307,390.402802 2586.832031,416.451721 2575.929199,443.277954 
z"/>
<path fill="#00C5FF" opacity="1.000000" stroke="none" 
	d="
M1376.468628,591.000000 
	C1376.008545,486.317535 1376.017212,381.635101 1376.552368,276.477173 
	C1426.456055,276.007050 1475.833252,276.021973 1525.210327,275.981659 
	C1527.125488,275.980103 1529.040283,275.448578 1530.955200,275.163971 
	C1548.858154,275.873444 1566.236206,279.055542 1582.715942,286.325287 
	C1594.515991,291.530731 1605.091187,298.647247 1614.191772,307.758209 
	C1629.288574,322.872101 1638.668335,341.206299 1641.802002,362.212067 
	C1643.618530,374.389587 1644.719849,386.995117 1643.705078,399.205444 
	C1641.715942,423.139313 1632.643433,444.471191 1616.724609,462.949249 
	C1600.548950,481.725739 1579.907349,492.371033 1556.317017,497.663818 
	C1546.781250,499.803314 1536.811890,500.660797 1527.015015,500.856384 
	C1504.367310,501.308472 1481.704712,501.000000 1459.048096,501.000000 
	C1457.241089,501.000000 1455.434082,501.000000 1453.000000,501.000000 
	C1453.000000,530.893127 1453.000000,560.477905 1453.000000,590.531372 
	C1427.645752,591.000000 1402.291504,591.000000 1376.468628,591.000000 
M1562.041992,406.436218 
	C1563.414185,402.136841 1565.201660,397.920929 1566.084839,393.523346 
	C1569.463867,376.698334 1563.387817,361.657898 1549.950684,352.030609 
	C1540.203613,345.047241 1528.991455,342.208130 1517.195312,342.064514 
	C1497.698730,341.827087 1478.197266,342.000000 1458.697876,342.000000 
	C1456.922363,342.000000 1455.146851,342.000000 1453.334229,342.000000 
	C1453.334229,371.618439 1453.334229,400.673340 1453.334229,428.993530 
	C1478.745361,428.993530 1503.863770,429.900055 1528.872925,428.640350 
	C1542.997070,427.928864 1554.308716,419.751740 1562.041992,406.436218 
z"/>
<path fill="#404040" opacity="1.000000" stroke="none" 
	d="
M369.947083,276.156921 
	C382.434662,276.104645 394.922211,276.014038 407.409821,276.007294 
	C444.549866,275.987152 481.702209,276.564178 518.824646,275.755310 
	C536.626709,275.367432 553.461304,278.200989 570.067139,283.949005 
	C582.680298,288.314941 593.782532,295.148193 603.617981,304.117004 
	C613.098022,312.761749 621.282288,322.483551 626.569824,334.223694 
	C632.137634,346.585938 636.302429,359.432312 637.004395,373.153656 
	C637.315613,379.236511 638.160217,385.337311 637.914062,391.395508 
	C636.887695,416.657135 628.953796,439.420135 613.159241,459.438812 
	C596.948547,479.984863 575.563477,491.972382 550.535400,497.718506 
	C541.704346,499.746033 532.469666,500.697662 523.396729,500.857574 
	C499.421326,501.280060 475.433594,501.000427 451.450775,501.000305 
	C449.815613,501.000305 448.180481,501.000336 446.000305,501.000336 
	C446.000305,530.896606 446.000305,560.479675 446.000153,590.531372 
	C420.979095,591.000000 395.958221,591.000000 370.468658,590.531372 
	C369.982361,485.427429 369.964722,380.792145 369.947083,276.156921 
M446.000031,415.495575 
	C446.000031,420.257538 446.000031,425.019501 446.000031,428.997864 
	C471.185333,428.997864 495.734772,429.165131 520.280090,428.918304 
	C530.569397,428.814850 539.499939,424.157837 546.863770,417.430328 
	C557.516846,407.697876 561.883850,395.402618 560.127869,380.736633 
	C558.908569,370.552979 555.010742,361.967468 547.577881,355.204102 
	C537.304993,345.856567 524.496216,342.433228 511.058319,342.121521 
	C490.905884,341.654114 470.734558,341.994965 450.571289,342.010468 
	C449.132263,342.011597 447.693359,342.162994 446.000092,342.258911 
	C446.000092,366.556122 446.000092,390.526367 446.000031,415.495575 
z"/>
<path fill="#FFFFFF" opacity="1.000000" stroke="none" 
	d="
M326.531342,1.000001 
	C322.899353,1.664752 318.820801,2.558896 314.694397,2.955977 
	C292.581665,5.083868 271.725586,11.776726 251.377136,20.278093 
	C233.674835,27.673935 217.356079,37.583683 202.347717,49.404144 
	C179.829681,67.139168 160.776505,88.064438 145.966232,112.803696 
	C133.405212,133.785797 124.045883,156.019379 118.687073,179.835907 
	C116.508263,189.519272 114.974525,199.425400 114.143013,209.313889 
	C113.186630,220.687317 112.482033,232.208603 113.217903,243.565231 
	C114.113853,257.392303 116.057632,271.221497 118.621552,284.847778 
	C120.587944,295.298462 124.218079,305.436127 127.258865,316.248444 
	C117.006996,321.608551 106.183640,327.269287 95.358643,332.926819 
	C73.663589,344.265411 51.962189,355.591827 30.274628,366.944702 
	C20.749277,371.930969 11.251342,376.969604 1.370482,381.992249 
	C1.000000,255.078598 1.000000,128.157196 1.000000,1.000000 
	C109.354111,1.000000 217.708405,1.000000 326.531342,1.000001 
z"/>
<path fill="#FFFFFF" opacity="1.000000" stroke="none" 
	d="
M1093.468628,591.000000 
	C1093.000000,527.576660 1093.000000,464.153351 1093.000000,399.601257 
	C1103.688721,413.800873 1113.817749,427.198517 1123.882324,440.644348 
	C1133.370239,453.319733 1142.789917,466.046265 1152.240723,478.749359 
	C1163.803833,494.291626 1175.312134,509.874939 1186.947266,525.363159 
	C1199.442505,541.996216 1212.072266,558.528198 1224.610352,575.129272 
	C1228.402100,580.149963 1232.083618,585.254089 1235.907837,590.659973 
	C1188.645752,591.000000 1141.291504,591.000000 1093.468628,591.000000 
z"/>
<path fill="#FFFFFF" opacity="1.000000" stroke="none" 
	d="
M2515.468750,591.000000 
	C2519.652100,579.406860 2524.295654,567.810364 2528.959473,556.221924 
	C2531.627686,549.592285 2534.609619,543.070862 2536.896729,536.313293 
	C2538.072021,532.840637 2540.221924,532.527466 2542.895020,533.101013 
	C2559.939209,536.757324 2577.130371,539.022949 2594.590332,539.003113 
	C2606.943359,538.989136 2619.352783,539.739258 2631.634521,538.804016 
	C2645.615479,537.739502 2659.485107,535.200134 2673.396484,533.254211 
	C2676.166748,532.866699 2677.888916,532.727600 2679.315674,536.324524 
	C2686.500977,554.437744 2694.239014,572.331543 2701.891602,590.651245 
	C2639.979248,591.000000 2577.958252,591.000000 2515.468750,591.000000 
z"/>
<path fill="#FFFFFF" opacity="1.000000" stroke="none" 
	d="
M701.468628,591.000000 
	C708.673889,572.516174 716.267822,553.997925 724.183289,535.618164 
	C724.775269,534.243591 727.890625,532.832520 729.456360,533.172668 
	C746.912292,536.964050 764.526978,539.161011 782.389771,538.968201 
	C798.618896,538.793030 814.877197,538.846558 831.060425,537.818420 
	C841.007324,537.186462 850.818359,534.575317 860.739197,533.206360 
	C862.295532,532.991577 865.108582,534.234741 865.656738,535.521240 
	C872.813171,552.317139 879.671570,569.240173 886.584595,586.139526 
	C887.129517,587.471497 887.524475,588.864807 887.994568,590.614807 
	C825.979126,591.000000 763.958191,591.000000 701.468628,591.000000 
z"/>
<path fill="#010101" opacity="1.000000" stroke="none" 
	d="
M369.534912,276.291077 
	C369.964722,380.792145 369.982361,485.427429 370.000000,590.531372 
	C370.000000,591.000000 369.500000,591.000000 369.250000,591.000000 
	C369.000000,487.970123 368.999390,384.940216 369.005127,281.910339 
	C369.005219,280.081970 369.081848,278.253601 369.534912,276.291077 
z"/>
<path fill="#00C5FF" opacity="1.000000" stroke="none" 
	d="
M2227.320312,297.708984 
	C2243.341553,308.450897 2255.075928,322.529724 2264.418213,338.829041 
	C2274.691406,356.752014 2280.968018,375.993622 2282.916016,396.478668 
	C2284.444092,412.546051 2286.146973,428.733246 2285.750000,444.817322 
	C2285.042236,473.493011 2279.296143,501.292236 2264.687256,526.459839 
	C2260.043457,534.459961 2254.233887,541.870300 2248.336182,549.039246 
	C2230.047607,571.270386 2204.944580,581.391785 2177.731934,586.738586 
	C2166.033203,589.037231 2153.878418,589.765991 2141.920166,589.860474 
	C2097.607178,590.210876 2053.289307,590.000000 2008.973389,590.000000 
	C2007.169922,590.000000 2005.366577,590.000000 2003.288086,590.000000 
	C2003.288086,484.941589 2003.288086,380.247742 2003.288086,275.000000 
	C2005.140259,275.000000 2006.915527,275.000000 2008.690674,275.000000 
	C2051.340576,274.999786 2094.002197,274.410034 2136.635986,275.240570 
	C2158.965088,275.675537 2181.690674,276.023804 2202.824219,285.037720 
	C2211.146484,288.587372 2218.969238,293.307892 2227.320312,297.708984 
M2173.919434,337.426910 
	C2170.537598,336.282288 2167.172363,335.085144 2163.770752,334.001923 
	C2147.656250,328.869812 2130.845947,330.399353 2114.351807,329.184357 
	C2101.757568,328.256622 2089.040527,328.991028 2076.377930,329.012756 
	C2074.957764,329.015198 2073.537842,329.191833 2072.247314,329.278931 
	C2072.247314,398.376068 2072.247314,466.964478 2072.247314,535.342407 
	C2072.618652,535.657166 2072.744629,535.856567 2072.866455,535.854126 
	C2100.883545,535.292175 2128.944092,537.723572 2156.922363,534.071472 
	C2182.382812,530.748047 2198.806885,517.100037 2207.053467,492.827667 
	C2212.774414,475.989990 2213.802246,458.539154 2214.862305,441.099396 
	C2215.341064,433.219269 2214.067871,425.248962 2214.060547,417.319122 
	C2214.049072,404.933167 2212.531494,392.784302 2208.965088,380.948517 
	C2203.265137,362.030853 2193.123535,346.560333 2173.919434,337.426910 
z"/>
<path fill="#00C5FF" opacity="1.000000" stroke="none" 
	d="
M1685.000000,456.000000 
	C1685.000000,395.537781 1685.000000,335.575562 1685.000000,275.306946 
	C1768.366089,275.306946 1851.411865,275.306946 1934.729004,275.306946 
	C1934.729004,292.999481 1934.729004,310.602417 1934.729004,328.720978 
	C1874.805664,328.720978 1814.755615,328.720978 1754.353516,328.720978 
	C1754.353516,351.951599 1754.353516,374.671448 1754.353516,397.902313 
	C1810.383545,397.902313 1866.435181,397.902313 1922.742920,397.902313 
	C1922.742920,416.011780 1922.742920,433.615540 1922.742920,451.734161 
	C1866.794922,451.734161 1810.743896,451.734161 1754.347168,451.734161 
	C1754.347168,479.964203 1754.347168,507.683258 1754.347168,535.917236 
	C1816.726318,535.917236 1879.109375,535.917236 1941.745117,535.917236 
	C1941.745117,554.030457 1941.745117,571.633118 1941.745117,589.618408 
	C1856.443359,589.618408 1771.064575,589.618408 1685.000000,589.618408 
	C1685.000000,545.331177 1685.000000,500.915588 1685.000000,456.000000 
z"/>
<path fill="#00C5FF" opacity="1.000000" stroke="none" 
	d="
M2400.000000,299.000000 
	C2400.000000,396.125702 2400.000000,492.751404 2400.000000,589.688354 
	C2376.962891,589.688354 2354.242920,589.688354 2331.260986,589.688354 
	C2331.260986,484.986603 2331.260986,380.392853 2331.260986,275.399475 
	C2353.857178,275.399475 2376.578125,275.399475 2400.000000,275.399475 
	C2400.000000,282.982239 2400.000000,290.741119 2400.000000,299.000000 
z"/>
<path fill="#00C0D0" opacity="1.000000" stroke="none" 
	d="
M1530.494507,275.093292 
	C1529.040283,275.448578 1527.125488,275.980103 1525.210327,275.981659 
	C1475.833252,276.021973 1426.456055,276.007050 1376.621338,276.014832 
	C1377.464355,275.687103 1378.764526,275.049286 1380.065308,275.048126 
	C1430.054810,275.003326 1480.044312,275.016846 1530.494507,275.093292 
z"/>
<path fill="#FFFFFF" opacity="1.000000" stroke="none" 
	d="
M780.254761,399.382751 
	C785.358337,387.411896 790.261475,375.783844 795.313477,363.802887 
	C800.294128,375.702820 805.129639,387.145844 809.876648,398.625458 
	C815.931824,413.268372 821.934143,427.933258 827.921936,442.603882 
	C830.819641,449.703339 833.601746,456.850006 836.499268,463.949554 
	C837.522217,466.456024 836.751465,467.876740 834.119751,467.970490 
	C814.139954,468.682190 794.161194,469.524750 774.174316,469.877014 
	C768.184265,469.982605 762.170288,468.652618 756.164978,468.002136 
	C753.403198,467.702942 752.400269,466.663727 753.633911,463.750610 
	C761.581665,444.983398 769.427490,426.172974 777.268066,407.360565 
	C778.309265,404.862427 779.130981,402.272827 780.254761,399.382751 
z"/>
<path fill="#FFFFFF" opacity="1.000000" stroke="none" 
	d="
M2575.964355,442.889282 
	C2586.832031,416.451721 2597.664307,390.402802 2608.833008,363.544434 
	C2623.076660,398.314636 2637.070801,432.476074 2651.369141,467.380005 
	C2622.578125,471.256226 2594.632812,470.926971 2565.548340,467.481262 
	C2569.220947,458.918304 2572.574951,451.098114 2575.964355,442.889282 
z"/>
<path fill="#FFFFFF" opacity="1.000000" stroke="none" 
	d="
M1561.779419,406.707397 
	C1554.308716,419.751740 1542.997070,427.928864 1528.872925,428.640350 
	C1503.863770,429.900055 1478.745361,428.993530 1453.334229,428.993530 
	C1453.334229,400.673340 1453.334229,371.618439 1453.334229,342.000000 
	C1455.146851,342.000000 1456.922363,342.000000 1458.697876,342.000000 
	C1478.197266,342.000000 1497.698730,341.827087 1517.195312,342.064514 
	C1528.991455,342.208130 1540.203613,345.047241 1549.950684,352.030609 
	C1563.387817,361.657898 1569.463867,376.698334 1566.084839,393.523346 
	C1565.201660,397.920929 1563.414185,402.136841 1561.779419,406.707397 
z"/>
<path fill="#FFFFFF" opacity="1.000000" stroke="none" 
	d="
M446.000061,414.996094 
	C446.000092,390.526367 446.000092,366.556122 446.000092,342.258911 
	C447.693359,342.162994 449.132263,342.011597 450.571289,342.010468 
	C470.734558,341.994965 490.905884,341.654114 511.058319,342.121521 
	C524.496216,342.433228 537.304993,345.856567 547.577881,355.204102 
	C555.010742,361.967468 558.908569,370.552979 560.127869,380.736633 
	C561.883850,395.402618 557.516846,407.697876 546.863770,417.430328 
	C539.499939,424.157837 530.569397,428.814850 520.280090,428.918304 
	C495.734772,429.165131 471.185333,428.997864 446.000031,428.997864 
	C446.000031,425.019501 446.000031,420.257538 446.000061,414.996094 
z"/>
<path fill="#FFFFFF" opacity="1.000000" stroke="none" 
	d="
M2174.224365,337.667236 
	C2193.123535,346.560333 2203.265137,362.030853 2208.965088,380.948517 
	C2212.531494,392.784302 2214.049072,404.933167 2214.060547,417.319122 
	C2214.067871,425.248962 2215.341064,433.219269 2214.862305,441.099396 
	C2213.802246,458.539154 2212.774414,475.989990 2207.053467,492.827667 
	C2198.806885,517.100037 2182.382812,530.748047 2156.922363,534.071472 
	C2128.944092,537.723572 2100.883545,535.292175 2072.866455,535.854126 
	C2072.744629,535.856567 2072.618652,535.657166 2072.247314,535.342407 
	C2072.247314,466.964478 2072.247314,398.376068 2072.247314,329.278931 
	C2073.537842,329.191833 2074.957764,329.015198 2076.377930,329.012756 
	C2089.040527,328.991028 2101.757568,328.256622 2114.351807,329.184357 
	C2130.845947,330.399353 2147.656250,328.869812 2163.770752,334.001923 
	C2167.172363,335.085144 2170.537598,336.282288 2174.224365,337.667236 
z"/>
</svg>