<svg width="114" height="25" viewBox="0 0 114 25" fill="none" xmlns="http://www.w3.org/2000/svg">
<rect x="0.5" y="0.5" width="97" height="24" rx="2.5" stroke="black"/>
<path d="M11.596 17V7.2H15.264C16.0947 7.2 16.8087 7.33533 17.406 7.606C18.0033 7.86733 18.4607 8.25 18.778 8.754C19.1047 9.24867 19.268 9.85067 19.268 10.56C19.268 11.2507 19.1047 11.848 18.778 12.352C18.4607 12.8467 18.0033 13.2293 17.406 13.5C16.8087 13.7707 16.0947 13.906 15.264 13.906H12.17L12.632 13.416V17H11.596ZM12.632 13.5L12.17 12.996H15.236C16.216 12.996 16.958 12.786 17.462 12.366C17.9753 11.9367 18.232 11.3347 18.232 10.56C18.232 9.776 17.9753 9.16933 17.462 8.74C16.958 8.31067 16.216 8.096 15.236 8.096H12.17L12.632 7.606V13.5ZM23.1881 17V7.2H26.8561C27.6868 7.2 28.4008 7.33533 28.9981 7.606C29.5954 7.86733 30.0528 8.25 30.3701 8.754C30.6968 9.24867 30.8601 9.85067 30.8601 10.56C30.8601 11.2507 30.6968 11.848 30.3701 12.352C30.0528 12.8467 29.5954 13.2293 28.9981 13.5C28.4008 13.7613 27.6868 13.892 26.8561 13.892H23.7621L24.2241 13.416V17H23.1881ZM29.8801 17L27.3601 13.444H28.4801L31.0141 17H29.8801ZM24.2241 13.5L23.7621 13.01H26.8281C27.8081 13.01 28.5501 12.7953 29.0541 12.366C29.5674 11.9367 29.8241 11.3347 29.8241 10.56C29.8241 9.776 29.5674 9.16933 29.0541 8.74C28.5501 8.31067 27.8081 8.096 26.8281 8.096H23.7621L24.2241 7.606V13.5ZM39.2693 17.084C38.532 17.084 37.846 16.9627 37.2113 16.72C36.586 16.468 36.04 16.118 35.5733 15.67C35.116 15.2127 34.7566 14.6853 34.4953 14.088C34.2433 13.4813 34.1173 12.8187 34.1173 12.1C34.1173 11.3813 34.2433 10.7233 34.4953 10.126C34.7566 9.51933 35.116 8.992 35.5733 8.544C36.04 8.08667 36.586 7.73667 37.2113 7.494C37.8366 7.242 38.5226 7.116 39.2693 7.116C40.0066 7.116 40.688 7.242 41.3133 7.494C41.9386 7.73667 42.48 8.082 42.9373 8.53C43.404 8.978 43.7633 9.50533 44.0153 10.112C44.2766 10.7187 44.4073 11.3813 44.4073 12.1C44.4073 12.8187 44.2766 13.4813 44.0153 14.088C43.7633 14.6947 43.404 15.222 42.9373 15.67C42.48 16.118 41.9386 16.468 41.3133 16.72C40.688 16.9627 40.0066 17.084 39.2693 17.084ZM39.2693 16.16C39.8573 16.16 40.3986 16.062 40.8933 15.866C41.3973 15.6607 41.8313 15.376 42.1953 15.012C42.5686 14.6387 42.858 14.2093 43.0633 13.724C43.2686 13.2293 43.3713 12.688 43.3713 12.1C43.3713 11.512 43.2686 10.9753 43.0633 10.49C42.858 9.99533 42.5686 9.566 42.1953 9.202C41.8313 8.82867 41.3973 8.544 40.8933 8.348C40.3986 8.14267 39.8573 8.04 39.2693 8.04C38.6813 8.04 38.1353 8.14267 37.6313 8.348C37.1273 8.544 36.6886 8.82867 36.3153 9.202C35.9513 9.566 35.662 9.99533 35.4473 10.49C35.242 10.9753 35.1393 11.512 35.1393 12.1C35.1393 12.6787 35.242 13.2153 35.4473 13.71C35.662 14.2047 35.9513 14.6387 36.3153 15.012C36.6886 15.376 37.1273 15.6607 37.6313 15.866C38.1353 16.062 38.6813 16.16 39.2693 16.16ZM38.3593 6.402L40.2773 4.666H41.6073L39.3393 6.402H38.3593ZM46.696 17L50.714 11.568V12.366L46.934 7.2H48.124L51.302 11.512L50.84 11.526L54.018 7.2H55.138L51.4 12.296V11.568L55.404 17H54.2L50.812 12.394H51.246L47.886 17H46.696ZM58.5797 17V7.2H59.6157V17H58.5797ZM64.4843 17V7.2H65.3383L69.8183 14.844H69.3703L73.8083 7.2H74.6623V17H73.6683V8.754H73.9063L69.8183 15.754H69.3283L65.2123 8.754H65.4783V17H64.4843ZM77.9674 17L82.4474 7.2H83.4694L87.9494 17H86.8574L82.7414 7.802H83.1614L79.0454 17H77.9674ZM79.7314 14.382L80.0394 13.542H85.7374L86.0454 14.382H79.7314Z" fill="black"/>
</svg>
